<svg width="357" height="112" viewBox="0 0 357 112" fill="none" xmlns="http://www.w3.org/2000/svg">
<path opacity="0.24" d="M60.9423 110.678H9.24607C8.07116 110.678 7.10986 109.716 7.10986 108.541V7.94725C7.10986 6.77233 8.07116 5.81104 9.24607 5.81104H69.0599C70.2349 5.81104 71.1962 6.77233 71.1962 7.94725V100.424C71.1962 106.085 66.6033 110.678 60.9423 110.678Z" fill="black" stroke="black" stroke-width="1.28173" stroke-miterlimit="10" stroke-linecap="round" stroke-linejoin="round"/>
<path d="M54.8325 106.128H3.13621C1.96129 106.128 1 105.166 1 103.992V3.37596C1 2.20104 1.96129 1.23975 3.13621 1.23975H62.9501C64.125 1.23975 65.0863 2.20104 65.0863 3.37596V95.8526C65.0863 101.535 60.4934 106.128 54.8325 106.128Z" fill="#FCA417"/>
<path opacity="0.33" d="M3.52072 103.201V4.16648C3.52072 2.56432 4.82381 1.26123 6.42597 1.26123H3.90525C2.30309 1.26123 1 2.56432 1 4.16648V103.201C1 104.803 2.30309 106.106 3.90525 106.106H6.42597C4.82381 106.128 3.52072 104.803 3.52072 103.201Z" fill="white"/>
<path d="M20.2257 84.2742C26.3371 84.2742 31.2913 79.32 31.2913 73.2087C31.2913 67.0973 26.3371 62.1431 20.2257 62.1431C14.1144 62.1431 9.16016 67.0973 9.16016 73.2087C9.16016 79.32 14.1144 84.2742 20.2257 84.2742Z" fill="#FCA84C"/>
<path opacity="0.66" d="M12.1299 66.7145C15.8683 62.0362 22.64 61.2031 27.4038 64.7706C27.3183 64.7065 27.2329 64.6211 27.1474 64.557C22.3837 60.7332 15.3983 61.5022 11.5958 66.2873C7.79339 71.0724 8.54106 78.0365 13.3262 81.8389C13.4116 81.903 13.5184 81.9884 13.6039 82.0525C9.05375 78.186 8.37017 71.3928 12.1299 66.7145Z" fill="#FCA84C"/>
<path d="M62.1811 1.23975H59.5109C61.113 1.23975 62.4802 2.54284 62.4802 4.145V92.1355C62.4802 99.8473 56.1784 106.128 48.4453 106.128H51.1156C58.8273 106.128 65.1077 99.8686 65.1077 92.1355V4.16636C65.0864 2.5642 63.7833 1.23975 62.1811 1.23975Z" fill="#FCA84C"/>
<path d="M42.5918 106.128H51.0939C58.8056 106.128 65.0861 99.8685 65.0861 92.1354V83.6333L42.5918 106.128Z" fill="#FCA84C"/>
<path d="M51.094 104.077H5.69956C4.6101 104.077 3.71289 104.974 3.71289 106.064V106.107H51.094C63.5054 106.107 65.0862 99.8474 65.0862 92.1144V90.085C65.0862 97.818 58.8271 104.077 51.094 104.077Z" fill="#FCA84C"/>
<path d="M54.8325 106.128H3.13621C1.96129 106.128 1 105.166 1 103.992V3.37596C1 2.20104 1.96129 1.23975 3.13621 1.23975H62.9501C64.125 1.23975 65.0863 2.20104 65.0863 3.37596V95.8526C65.0863 101.535 60.4934 106.128 54.8325 106.128Z" stroke="black" stroke-width="1.28173" stroke-miterlimit="10" stroke-linecap="round" stroke-linejoin="round"/>
<path d="M52.9315 49.9455H10.5918C10.1218 49.9455 9.7373 49.561 9.7373 49.091V14.0571C9.7373 13.5872 10.1218 13.2026 10.5918 13.2026H55.4949C55.9649 13.2026 56.3494 13.5872 56.3494 14.0571V46.5275C56.3494 48.4074 54.8113 49.9455 52.9315 49.9455Z" fill="#514447"/>
<path d="M52.9315 49.9455H10.5918C10.1218 49.9455 9.7373 49.561 9.7373 49.091V14.0571C9.7373 13.5872 10.1218 13.2026 10.5918 13.2026H55.4949C55.9649 13.2026 56.3494 13.5872 56.3494 14.0571V46.5275C56.3494 48.4074 54.8113 49.9455 52.9315 49.9455Z" stroke="black" stroke-width="0.854484" stroke-miterlimit="10" stroke-linecap="round" stroke-linejoin="round"/>
<path d="M47.3984 45.8651H18.6877C18.5596 45.8651 18.4741 45.7797 18.4741 45.6515V19.2693C18.4741 19.1411 18.5596 19.0557 18.6877 19.0557H47.3984C47.5266 19.0557 47.612 19.1411 47.612 19.2693V45.6515C47.612 45.7797 47.5052 45.8651 47.3984 45.8651Z" fill="#23A094"/>
<path d="M47.3984 45.8651H18.6877C18.5596 45.8651 18.4741 45.7797 18.4741 45.6515V19.2693C18.4741 19.1411 18.5596 19.0557 18.6877 19.0557H47.3984C47.5266 19.0557 47.612 19.1411 47.612 19.2693V45.6515C47.612 45.7797 47.5052 45.8651 47.3984 45.8651Z" stroke="black" stroke-width="0.854484" stroke-miterlimit="10" stroke-linecap="round" stroke-linejoin="round"/>
<path d="M62.181 1.23975H3.90525C2.30309 1.23975 1 2.54284 1 4.14499V7.05024H65.0863V4.14499C65.0863 2.5642 63.7832 1.23975 62.181 1.23975Z" stroke="black" stroke-width="0.854484" stroke-miterlimit="10" stroke-linecap="round" stroke-linejoin="round"/>
<path d="M39.1528 55.4355H56.3493" stroke="black" stroke-width="0.854484" stroke-miterlimit="10" stroke-linecap="round" stroke-linejoin="round"/>
<path d="M9.7373 55.4355H26.9338" stroke="black" stroke-width="0.854484" stroke-miterlimit="10" stroke-linecap="round" stroke-linejoin="round"/>
<path d="M27.6598 75.5797H13.3044C12.7704 75.5797 12.3218 75.1524 12.3218 74.597V71.7986C12.3218 71.2645 12.749 70.8159 13.3044 70.8159H27.6598C28.1938 70.8159 28.6424 71.2432 28.6424 71.7986V74.597C28.6211 75.1524 28.1938 75.5797 27.6598 75.5797Z" fill="#664A4A"/>
<path d="M18.0894 80.3863V66.031C18.0894 65.4969 18.5166 65.0483 19.072 65.0483H21.8704C22.4045 65.0483 22.8531 65.4756 22.8531 66.031V80.3863C22.8531 80.9204 22.4259 81.369 21.8704 81.369H19.072C18.5166 81.3476 18.0894 80.9204 18.0894 80.3863Z" fill="#664A4A"/>
<path d="M27.4034 70.8803H23.3233C23.0669 70.8803 22.8747 70.6667 22.8747 70.4317V66.3943C22.8747 65.668 22.2765 65.0698 21.5502 65.0698H19.4567C18.7731 65.0698 18.2177 65.6252 18.2177 66.3088V70.4531C18.2177 70.7094 18.0041 70.9017 17.7691 70.9017H13.689C12.984 70.9017 12.4072 71.4785 12.4072 72.1834V74.2769C12.4072 74.9819 12.984 75.5586 13.689 75.5586H17.7691C18.0255 75.5586 18.2177 75.7722 18.2177 76.0072V80.0447C18.2177 80.771 18.8159 81.3691 19.5422 81.3691H21.5502C22.2765 81.3691 22.8747 80.771 22.8747 80.0447V76.0072C22.8747 75.7509 23.0883 75.5586 23.3233 75.5586H27.318C28.087 75.5586 28.6851 74.9391 28.6851 74.1914V72.1834C28.6638 71.4357 28.1084 70.8803 27.4034 70.8803Z" stroke="black" stroke-width="0.854484" stroke-miterlimit="10" stroke-linecap="round" stroke-linejoin="round"/>
<path d="M45.241 81.2834C44.0661 81.2834 42.9767 80.8348 42.1435 80.0017C41.3104 79.1686 40.8618 78.0791 40.8618 76.9042C40.8618 75.7293 41.3104 74.6398 42.1435 73.8067L49.5562 66.394C50.3893 65.5609 51.4788 65.1123 52.6537 65.1123C53.8286 65.1123 54.9181 65.5609 55.7512 66.394C57.4602 68.103 57.4602 70.8801 55.7512 72.5677L48.3386 79.9803C47.5054 80.8135 46.416 81.2834 45.241 81.2834Z" fill="#FCA84C"/>
<path opacity="0.66" d="M42.4853 80.0018C41.6522 79.1687 41.2036 78.0792 41.2036 76.9043C41.2036 75.7294 41.6522 74.6399 42.4853 73.8068L49.898 66.3942C50.6884 65.6038 51.7138 65.1552 52.8246 65.1338C52.7605 65.1338 52.7178 65.1338 52.6537 65.1338C51.4788 65.1338 50.3893 65.5824 49.5562 66.4155L42.1435 73.8282C41.3104 74.6613 40.8618 75.7508 40.8618 76.9257C40.8618 78.1006 41.3104 79.1901 42.1435 80.0232C42.9767 80.8563 44.0661 81.3049 45.241 81.3049C45.3051 81.3049 45.3479 81.3049 45.412 81.3049C44.3011 81.2195 43.2757 80.7922 42.4853 80.0018Z" fill="#FCA84C"/>
<path d="M52.6538 72.3959C54.2583 72.3959 55.559 71.0952 55.559 69.4907C55.559 67.8862 54.2583 66.5854 52.6538 66.5854C51.0493 66.5854 49.7485 67.8862 49.7485 69.4907C49.7485 71.0952 51.0493 72.3959 52.6538 72.3959Z" fill="#FF1F1F"/>
<path d="M45.2412 79.809C46.8457 79.809 48.1464 78.5083 48.1464 76.9038C48.1464 75.2993 46.8457 73.9985 45.2412 73.9985C43.6367 73.9985 42.3359 75.2993 42.3359 76.9038C42.3359 78.5083 43.6367 79.809 45.2412 79.809Z" fill="#FF1F1F"/>
<path d="M52.6538 72.3959C54.2583 72.3959 55.559 71.0952 55.559 69.4907C55.559 67.8862 54.2583 66.5854 52.6538 66.5854C51.0493 66.5854 49.7485 67.8862 49.7485 69.4907C49.7485 71.0952 51.0493 72.3959 52.6538 72.3959Z" stroke="black" stroke-width="0.854484" stroke-miterlimit="10" stroke-linecap="round" stroke-linejoin="round"/>
<path d="M45.2412 79.809C46.8457 79.809 48.1464 78.5083 48.1464 76.9038C48.1464 75.2993 46.8457 73.9985 45.2412 73.9985C43.6367 73.9985 42.3359 75.2993 42.3359 76.9038C42.3359 78.5083 43.6367 79.809 45.2412 79.809Z" stroke="black" stroke-width="0.854484" stroke-miterlimit="10" stroke-linecap="round" stroke-linejoin="round"/>
<path d="M27.0618 92.8189L26.6132 92.3703C26.3568 92.114 26.3568 91.7081 26.6132 91.4731L31.1206 86.9657C31.3769 86.7094 31.7828 86.7094 32.0178 86.9657L32.4664 87.4143C32.7227 87.6707 32.7227 88.0765 32.4664 88.3115L27.959 92.8189C27.7026 93.0753 27.2967 93.0753 27.0618 92.8189Z" stroke="black" stroke-width="0.854484" stroke-miterlimit="10" stroke-linecap="round" stroke-linejoin="round"/>
<path d="M34.3674 92.8189L33.9188 92.3703C33.6625 92.114 33.6625 91.7081 33.9188 91.4731L38.4262 86.9657C38.6826 86.7094 39.0885 86.7094 39.3234 86.9657L39.772 87.4143C40.0284 87.6707 40.0284 88.0765 39.772 88.3115L35.2646 92.8189C35.0296 93.0753 34.6238 93.0753 34.3674 92.8189Z" stroke="black" stroke-width="0.854484" stroke-miterlimit="10" stroke-linecap="round" stroke-linejoin="round"/>
<path d="M49.4702 94.3569L52.9522 97.8603" stroke="black" stroke-width="1.28173" stroke-miterlimit="10" stroke-linecap="round" stroke-linejoin="round"/>
<path d="M47.1846 96.6211L50.6879 100.124" stroke="black" stroke-width="1.28173" stroke-miterlimit="10" stroke-linecap="round" stroke-linejoin="round"/>
<path d="M51.9268 91.8784L55.4301 95.3818" stroke="black" stroke-width="1.28173" stroke-miterlimit="10" stroke-linecap="round" stroke-linejoin="round"/>
<path d="M54.1914 89.6147L57.6948 93.1181" stroke="black" stroke-width="1.28173" stroke-miterlimit="10" stroke-linecap="round" stroke-linejoin="round"/>
<path d="M56.4556 87.3501L59.959 90.8535" stroke="black" stroke-width="1.28173" stroke-miterlimit="10" stroke-linecap="round" stroke-linejoin="round"/>
<path d="M58.5493 1.23975H7.70752V7.0716H58.5493V1.23975Z" stroke="black" stroke-width="0.854484" stroke-miterlimit="10" stroke-linecap="round" stroke-linejoin="round"/>
<path d="M14.1162 16.4067H34.987" stroke="black" stroke-width="0.854484" stroke-miterlimit="10" stroke-linecap="round" stroke-linejoin="round"/>
<path d="M46.1597 16.4067H52.846" stroke="black" stroke-width="0.854484" stroke-miterlimit="10" stroke-linecap="round" stroke-linejoin="round"/>
<path d="M29.8818 54.6665V56.2046" stroke="black" stroke-width="0.854484" stroke-miterlimit="10" stroke-linecap="round" stroke-linejoin="round"/>
<path d="M31.9966 54.6665V56.2046" stroke="black" stroke-width="0.854484" stroke-miterlimit="10" stroke-linecap="round" stroke-linejoin="round"/>
<path d="M34.0903 54.6665V56.2046" stroke="black" stroke-width="0.854484" stroke-miterlimit="10" stroke-linecap="round" stroke-linejoin="round"/>
<path d="M36.2051 54.6665V56.2046" stroke="black" stroke-width="0.854484" stroke-miterlimit="10" stroke-linecap="round" stroke-linejoin="round"/>
<path opacity="0.24" d="M153.638 110.678H101.942C100.767 110.678 99.8057 109.717 99.8057 108.542V7.94774C99.8057 6.77282 100.767 5.81152 101.942 5.81152H161.756C162.931 5.81152 163.892 6.77282 163.892 7.94774V100.424C163.892 106.085 159.299 110.678 153.638 110.678Z" fill="black" stroke="black" stroke-width="1.28173" stroke-miterlimit="10" stroke-linecap="round" stroke-linejoin="round"/>
<path d="M147.528 106.128H95.832C94.6571 106.128 93.6958 105.166 93.6958 103.992V3.37596C93.6958 2.20104 94.6571 1.23975 95.832 1.23975H155.646C156.821 1.23975 157.782 2.20104 157.782 3.37596V95.8526C157.782 101.535 153.189 106.128 147.528 106.128Z" fill="#FCA417"/>
<path opacity="0.33" d="M96.2165 103.201V4.16648C96.2165 2.56432 97.5196 1.26123 99.1218 1.26123H96.601C94.9989 1.26123 93.6958 2.56432 93.6958 4.16648V103.201C93.6958 104.803 94.9989 106.106 96.601 106.106H99.1218C97.5196 106.128 96.2165 104.803 96.2165 103.201Z" fill="white"/>
<path d="M112.922 84.2742C119.033 84.2742 123.987 79.32 123.987 73.2087C123.987 67.0973 119.033 62.1431 112.922 62.1431C106.81 62.1431 101.856 67.0973 101.856 73.2087C101.856 79.32 106.81 84.2742 112.922 84.2742Z" fill="#FCA84C"/>
<path opacity="0.66" d="M104.826 66.7145C108.564 62.0362 115.336 61.2031 120.1 64.7706C120.014 64.7065 119.929 64.6211 119.843 64.557C115.079 60.7332 108.094 61.5022 104.292 66.2873C100.489 71.0724 101.237 78.0365 106.022 81.8389C106.107 81.903 106.214 81.9884 106.3 82.0525C101.75 78.186 101.066 71.3928 104.826 66.7145Z" fill="#FCA84C"/>
<path d="M154.877 1.23975H152.207C153.809 1.23975 155.176 2.54284 155.176 4.145V92.1355C155.176 99.8473 148.874 106.128 141.141 106.128H143.811C151.523 106.128 157.804 99.8686 157.804 92.1355V4.16636C157.782 2.5642 156.479 1.23975 154.877 1.23975Z" fill="#FCA84C"/>
<path d="M135.288 106.128H143.79C151.501 106.128 157.782 99.8685 157.782 92.1354V83.6333L135.288 106.128Z" fill="#FCA84C"/>
<path d="M143.79 104.077H98.3954C97.3059 104.077 96.4087 104.974 96.4087 106.064V106.107H143.79C156.201 106.107 157.782 99.8474 157.782 92.1144V90.085C157.782 97.818 151.523 104.077 143.79 104.077Z" fill="#FCA84C"/>
<path d="M147.528 106.128H95.832C94.6571 106.128 93.6958 105.166 93.6958 103.992V3.37596C93.6958 2.20104 94.6571 1.23975 95.832 1.23975H155.646C156.821 1.23975 157.782 2.20104 157.782 3.37596V95.8526C157.782 101.535 153.189 106.128 147.528 106.128Z" stroke="black" stroke-width="1.28173" stroke-miterlimit="10" stroke-linecap="round" stroke-linejoin="round"/>
<path d="M145.627 49.9455H103.287C102.817 49.9455 102.433 49.561 102.433 49.091V14.0571C102.433 13.5872 102.817 13.2026 103.287 13.2026H148.19C148.66 13.2026 149.045 13.5872 149.045 14.0571V46.5275C149.045 48.4074 147.507 49.9455 145.627 49.9455Z" fill="#514447"/>
<path d="M145.627 49.9455H103.287C102.817 49.9455 102.433 49.561 102.433 49.091V14.0571C102.433 13.5872 102.817 13.2026 103.287 13.2026H148.19C148.66 13.2026 149.045 13.5872 149.045 14.0571V46.5275C149.045 48.4074 147.507 49.9455 145.627 49.9455Z" stroke="black" stroke-width="0.854484" stroke-miterlimit="10" stroke-linecap="round" stroke-linejoin="round"/>
<path d="M140.094 45.8651H111.384C111.255 45.8651 111.17 45.7797 111.17 45.6515V19.2693C111.17 19.1411 111.255 19.0557 111.384 19.0557H140.094C140.222 19.0557 140.308 19.1411 140.308 19.2693V45.6515C140.308 45.7797 140.201 45.8651 140.094 45.8651Z" fill="#23A094"/>
<path d="M140.094 45.8651H111.384C111.255 45.8651 111.17 45.7797 111.17 45.6515V19.2693C111.17 19.1411 111.255 19.0557 111.384 19.0557H140.094C140.222 19.0557 140.308 19.1411 140.308 19.2693V45.6515C140.308 45.7797 140.201 45.8651 140.094 45.8651Z" stroke="black" stroke-width="0.854484" stroke-miterlimit="10" stroke-linecap="round" stroke-linejoin="round"/>
<path d="M154.877 1.23975H96.601C94.9989 1.23975 93.6958 2.54284 93.6958 4.14499V7.05024H157.782V4.14499C157.782 2.5642 156.479 1.23975 154.877 1.23975Z" stroke="black" stroke-width="0.854484" stroke-miterlimit="10" stroke-linecap="round" stroke-linejoin="round"/>
<path d="M131.849 55.4355H149.045" stroke="black" stroke-width="0.854484" stroke-miterlimit="10" stroke-linecap="round" stroke-linejoin="round"/>
<path d="M102.433 55.4355H119.629" stroke="black" stroke-width="0.854484" stroke-miterlimit="10" stroke-linecap="round" stroke-linejoin="round"/>
<path d="M120.356 75.5797H106C105.466 75.5797 105.018 75.1524 105.018 74.597V71.7986C105.018 71.2645 105.445 70.8159 106 70.8159H120.356C120.89 70.8159 121.338 71.2432 121.338 71.7986V74.597C121.317 75.1524 120.89 75.5797 120.356 75.5797Z" fill="#664A4A"/>
<path d="M110.785 80.3863V66.031C110.785 65.4969 111.212 65.0483 111.768 65.0483H114.566C115.1 65.0483 115.549 65.4756 115.549 66.031V80.3863C115.549 80.9204 115.122 81.369 114.566 81.369H111.768C111.212 81.3476 110.785 80.9204 110.785 80.3863Z" fill="#664A4A"/>
<path d="M120.099 70.8803H116.019C115.763 70.8803 115.57 70.6667 115.57 70.4317V66.3943C115.57 65.668 114.972 65.0698 114.246 65.0698H112.153C111.469 65.0698 110.914 65.6252 110.914 66.3088V70.4531C110.914 70.7094 110.7 70.9017 110.465 70.9017H106.385C105.68 70.9017 105.103 71.4785 105.103 72.1834V74.2769C105.103 74.9819 105.68 75.5586 106.385 75.5586H110.465C110.721 75.5586 110.914 75.7722 110.914 76.0072V80.0447C110.914 80.771 111.512 81.3691 112.238 81.3691H114.246C114.972 81.3691 115.57 80.771 115.57 80.0447V76.0072C115.57 75.7509 115.784 75.5586 116.019 75.5586H120.014C120.783 75.5586 121.381 74.9391 121.381 74.1914V72.1834C121.36 71.4357 120.804 70.8803 120.099 70.8803Z" stroke="black" stroke-width="0.854484" stroke-miterlimit="10" stroke-linecap="round" stroke-linejoin="round"/>
<path d="M137.937 81.2829C136.762 81.2829 135.672 80.8343 134.839 80.0012C134.006 79.1681 133.558 78.0786 133.558 76.9037C133.558 75.7288 134.006 74.6393 134.839 73.8062L142.252 66.3935C143.085 65.5604 144.175 65.1118 145.349 65.1118C146.524 65.1118 147.614 65.5604 148.447 66.3935C150.156 68.1025 150.156 70.8796 148.447 72.5672L141.034 79.9798C140.201 80.813 139.112 81.2829 137.937 81.2829Z" fill="#FCA84C"/>
<path opacity="0.66" d="M135.181 80.0013C134.348 79.1682 133.899 78.0788 133.899 76.9038C133.899 75.7289 134.348 74.6395 135.181 73.8063L142.594 66.3937C143.384 65.6033 144.41 65.1547 145.52 65.1333C145.456 65.1333 145.414 65.1333 145.349 65.1333C144.175 65.1333 143.085 65.5819 142.252 66.415L134.839 73.8277C134.006 74.6608 133.558 75.7503 133.558 76.9252C133.558 78.1001 134.006 79.1896 134.839 80.0227C135.672 80.8558 136.762 81.3044 137.937 81.3044C138.001 81.3044 138.044 81.3044 138.108 81.3044C136.997 81.219 135.972 80.7917 135.181 80.0013Z" fill="#FCA84C"/>
<path d="M145.35 72.3969C146.954 72.3969 148.255 71.0962 148.255 69.4917C148.255 67.8871 146.954 66.5864 145.35 66.5864C143.745 66.5864 142.444 67.8871 142.444 69.4917C142.444 71.0962 143.745 72.3969 145.35 72.3969Z" fill="#FF1F1F"/>
<path d="M137.937 79.809C139.542 79.809 140.842 78.5083 140.842 76.9038C140.842 75.2993 139.542 73.9985 137.937 73.9985C136.332 73.9985 135.032 75.2993 135.032 76.9038C135.032 78.5083 136.332 79.809 137.937 79.809Z" fill="#FF1F1F"/>
<path d="M145.35 72.3969C146.954 72.3969 148.255 71.0962 148.255 69.4917C148.255 67.8871 146.954 66.5864 145.35 66.5864C143.745 66.5864 142.444 67.8871 142.444 69.4917C142.444 71.0962 143.745 72.3969 145.35 72.3969Z" stroke="black" stroke-width="0.854484" stroke-miterlimit="10" stroke-linecap="round" stroke-linejoin="round"/>
<path d="M137.937 79.809C139.542 79.809 140.842 78.5083 140.842 76.9038C140.842 75.2993 139.542 73.9985 137.937 73.9985C136.332 73.9985 135.032 75.2993 135.032 76.9038C135.032 78.5083 136.332 79.809 137.937 79.809Z" stroke="black" stroke-width="0.854484" stroke-miterlimit="10" stroke-linecap="round" stroke-linejoin="round"/>
<path d="M119.758 92.8189L119.309 92.3703C119.053 92.114 119.053 91.7081 119.309 91.4731L123.816 86.9657C124.073 86.7094 124.479 86.7094 124.714 86.9657L125.162 87.4143C125.419 87.6707 125.419 88.0765 125.162 88.3115L120.655 92.8189C120.398 93.0753 119.993 93.0753 119.758 92.8189Z" stroke="black" stroke-width="0.854484" stroke-miterlimit="10" stroke-linecap="round" stroke-linejoin="round"/>
<path d="M127.063 92.8189L126.615 92.3703C126.358 92.114 126.358 91.7081 126.615 91.4731L131.122 86.9657C131.378 86.7094 131.784 86.7094 132.019 86.9657L132.468 87.4143C132.724 87.6707 132.724 88.0765 132.468 88.3115L127.96 92.8189C127.725 93.0753 127.32 93.0753 127.063 92.8189Z" stroke="black" stroke-width="0.854484" stroke-miterlimit="10" stroke-linecap="round" stroke-linejoin="round"/>
<path d="M142.167 94.3579L145.649 97.8613" stroke="black" stroke-width="1.28173" stroke-miterlimit="10" stroke-linecap="round" stroke-linejoin="round"/>
<path d="M139.881 96.6216L143.384 100.125" stroke="black" stroke-width="1.28173" stroke-miterlimit="10" stroke-linecap="round" stroke-linejoin="round"/>
<path d="M144.623 91.8799L148.126 95.3833" stroke="black" stroke-width="1.28173" stroke-miterlimit="10" stroke-linecap="round" stroke-linejoin="round"/>
<path d="M146.888 89.6152L150.391 93.1186" stroke="black" stroke-width="1.28173" stroke-miterlimit="10" stroke-linecap="round" stroke-linejoin="round"/>
<path d="M149.152 87.3506L152.655 90.854" stroke="black" stroke-width="1.28173" stroke-miterlimit="10" stroke-linecap="round" stroke-linejoin="round"/>
<path d="M151.245 1.23975H100.403V7.0716H151.245V1.23975Z" stroke="black" stroke-width="0.854484" stroke-miterlimit="10" stroke-linecap="round" stroke-linejoin="round"/>
<path d="M106.812 16.4067H127.683" stroke="black" stroke-width="0.854484" stroke-miterlimit="10" stroke-linecap="round" stroke-linejoin="round"/>
<path d="M138.855 16.4067H145.542" stroke="black" stroke-width="0.854484" stroke-miterlimit="10" stroke-linecap="round" stroke-linejoin="round"/>
<path d="M122.577 54.6665V56.2046" stroke="black" stroke-width="0.854484" stroke-miterlimit="10" stroke-linecap="round" stroke-linejoin="round"/>
<path d="M124.692 54.6665V56.2046" stroke="black" stroke-width="0.854484" stroke-miterlimit="10" stroke-linecap="round" stroke-linejoin="round"/>
<path d="M126.786 54.6665V56.2046" stroke="black" stroke-width="0.854484" stroke-miterlimit="10" stroke-linecap="round" stroke-linejoin="round"/>
<path d="M128.9 54.6665V56.2046" stroke="black" stroke-width="0.854484" stroke-miterlimit="10" stroke-linecap="round" stroke-linejoin="round"/>
<path opacity="0.24" d="M246.333 110.678H194.637C193.462 110.678 192.501 109.717 192.501 108.542V7.94774C192.501 6.77282 193.462 5.81152 194.637 5.81152H254.451C255.626 5.81152 256.587 6.77282 256.587 7.94774V100.424C256.587 106.085 251.994 110.678 246.333 110.678Z" fill="black" stroke="black" stroke-width="1.28173" stroke-miterlimit="10" stroke-linecap="round" stroke-linejoin="round"/>
<path d="M240.224 106.128H188.528C187.353 106.128 186.392 105.166 186.392 103.992V3.37596C186.392 2.20104 187.353 1.23975 188.528 1.23975H248.342C249.517 1.23975 250.478 2.20104 250.478 3.37596V95.8526C250.478 101.535 245.885 106.128 240.224 106.128Z" fill="#FCA417"/>
<path opacity="0.33" d="M188.912 103.201V4.16648C188.912 2.56432 190.215 1.26123 191.818 1.26123H189.297C187.695 1.26123 186.392 2.56432 186.392 4.16648V103.201C186.392 104.803 187.695 106.106 189.297 106.106H191.818C190.215 106.128 188.912 104.803 188.912 103.201Z" fill="white"/>
<path d="M205.617 84.2742C211.729 84.2742 216.683 79.32 216.683 73.2087C216.683 67.0973 211.729 62.1431 205.617 62.1431C199.506 62.1431 194.552 67.0973 194.552 73.2087C194.552 79.32 199.506 84.2742 205.617 84.2742Z" fill="#FCA84C"/>
<path opacity="0.66" d="M197.521 66.7145C201.26 62.0362 208.032 61.2031 212.795 64.7706C212.71 64.7065 212.624 64.6211 212.539 64.557C207.775 60.7332 200.79 61.5022 196.987 66.2873C193.185 71.0724 193.933 78.0365 198.718 81.8389C198.803 81.903 198.91 81.9884 198.995 82.0525C194.445 78.186 193.762 71.3928 197.521 66.7145Z" fill="#FCA84C"/>
<path d="M247.573 1.23975H244.902C246.505 1.23975 247.872 2.54284 247.872 4.145V92.1355C247.872 99.8473 241.57 106.128 233.837 106.128H236.507C244.219 106.128 250.499 99.8686 250.499 92.1355V4.16636C250.478 2.5642 249.175 1.23975 247.573 1.23975Z" fill="#FCA84C"/>
<path d="M227.983 106.128H236.486C244.197 106.128 250.478 99.8685 250.478 92.1354V83.6333L227.983 106.128Z" fill="#FCA84C"/>
<path d="M236.486 104.077H191.091C190.002 104.077 189.104 104.974 189.104 106.064V106.107H236.486C248.897 106.107 250.478 99.8474 250.478 92.1144V90.085C250.478 97.818 244.219 104.077 236.486 104.077Z" fill="#FCA84C"/>
<path d="M240.224 106.128H188.528C187.353 106.128 186.392 105.166 186.392 103.992V3.37596C186.392 2.20104 187.353 1.23975 188.528 1.23975H248.342C249.517 1.23975 250.478 2.20104 250.478 3.37596V95.8526C250.478 101.535 245.885 106.128 240.224 106.128Z" stroke="black" stroke-width="1.28173" stroke-miterlimit="10" stroke-linecap="round" stroke-linejoin="round"/>
<path d="M238.323 49.9455H195.983C195.513 49.9455 195.128 49.561 195.128 49.091V14.0571C195.128 13.5872 195.513 13.2026 195.983 13.2026H240.886C241.356 13.2026 241.741 13.5872 241.741 14.0571V46.5275C241.741 48.4074 240.202 49.9455 238.323 49.9455Z" fill="#514447"/>
<path d="M238.323 49.9455H195.983C195.513 49.9455 195.128 49.561 195.128 49.091V14.0571C195.128 13.5872 195.513 13.2026 195.983 13.2026H240.886C241.356 13.2026 241.741 13.5872 241.741 14.0571V46.5275C241.741 48.4074 240.202 49.9455 238.323 49.9455Z" stroke="black" stroke-width="0.854484" stroke-miterlimit="10" stroke-linecap="round" stroke-linejoin="round"/>
<path d="M232.79 45.8651H204.079C203.951 45.8651 203.866 45.7797 203.866 45.6515V19.2693C203.866 19.1411 203.951 19.0557 204.079 19.0557H232.79C232.918 19.0557 233.004 19.1411 233.004 19.2693V45.6515C233.004 45.7797 232.897 45.8651 232.79 45.8651Z" fill="#23A094"/>
<path d="M232.79 45.8651H204.079C203.951 45.8651 203.866 45.7797 203.866 45.6515V19.2693C203.866 19.1411 203.951 19.0557 204.079 19.0557H232.79C232.918 19.0557 233.004 19.1411 233.004 19.2693V45.6515C233.004 45.7797 232.897 45.8651 232.79 45.8651Z" stroke="black" stroke-width="0.854484" stroke-miterlimit="10" stroke-linecap="round" stroke-linejoin="round"/>
<path d="M247.573 1.23975H189.297C187.695 1.23975 186.392 2.54284 186.392 4.14499V7.05024H250.478V4.14499C250.478 2.5642 249.175 1.23975 247.573 1.23975Z" stroke="black" stroke-width="0.854484" stroke-miterlimit="10" stroke-linecap="round" stroke-linejoin="round"/>
<path d="M224.544 55.4355H241.741" stroke="black" stroke-width="0.854484" stroke-miterlimit="10" stroke-linecap="round" stroke-linejoin="round"/>
<path d="M195.128 55.4355H212.325" stroke="black" stroke-width="0.854484" stroke-miterlimit="10" stroke-linecap="round" stroke-linejoin="round"/>
<path d="M213.051 75.5797H198.696C198.162 75.5797 197.713 75.1524 197.713 74.597V71.7986C197.713 71.2645 198.141 70.8159 198.696 70.8159H213.051C213.585 70.8159 214.034 71.2432 214.034 71.7986V74.597C214.013 75.1524 213.585 75.5797 213.051 75.5797Z" fill="#664A4A"/>
<path d="M203.481 80.3863V66.031C203.481 65.4969 203.908 65.0483 204.464 65.0483H207.262C207.796 65.0483 208.245 65.4756 208.245 66.031V80.3863C208.245 80.9204 207.817 81.369 207.262 81.369H204.464C203.908 81.3476 203.481 80.9204 203.481 80.3863Z" fill="#664A4A"/>
<path d="M212.795 70.8803H208.715C208.459 70.8803 208.266 70.6667 208.266 70.4317V66.3943C208.266 65.668 207.668 65.0698 206.942 65.0698H204.848C204.165 65.0698 203.609 65.6252 203.609 66.3088V70.4531C203.609 70.7094 203.396 70.9017 203.161 70.9017H199.081C198.376 70.9017 197.799 71.4785 197.799 72.1834V74.2769C197.799 74.9819 198.376 75.5586 199.081 75.5586H203.161C203.417 75.5586 203.609 75.7722 203.609 76.0072V80.0447C203.609 80.771 204.207 81.3691 204.934 81.3691H206.942C207.668 81.3691 208.266 80.771 208.266 80.0447V76.0072C208.266 75.7509 208.48 75.5586 208.715 75.5586H212.71C213.479 75.5586 214.077 74.9391 214.077 74.1914V72.1834C214.055 71.4357 213.5 70.8803 212.795 70.8803Z" stroke="black" stroke-width="0.854484" stroke-miterlimit="10" stroke-linecap="round" stroke-linejoin="round"/>
<path d="M230.633 81.2829C229.458 81.2829 228.368 80.8343 227.535 80.0012C226.702 79.1681 226.253 78.0786 226.253 76.9037C226.253 75.7288 226.702 74.6393 227.535 73.8062L234.948 66.3935C235.781 65.5604 236.87 65.1118 238.045 65.1118C239.22 65.1118 240.31 65.5604 241.143 66.3935C242.852 68.1025 242.852 70.8796 241.143 72.5672L233.73 79.9798C232.897 80.813 231.808 81.2829 230.633 81.2829Z" fill="#FCA84C"/>
<path opacity="0.66" d="M227.877 80.0013C227.044 79.1682 226.595 78.0788 226.595 76.9038C226.595 75.7289 227.044 74.6395 227.877 73.8063L235.29 66.3937C236.08 65.6033 237.105 65.1547 238.216 65.1333C238.152 65.1333 238.109 65.1333 238.045 65.1333C236.87 65.1333 235.781 65.5819 234.948 66.415L227.535 73.8277C226.702 74.6608 226.253 75.7503 226.253 76.9252C226.253 78.1001 226.702 79.1896 227.535 80.0227C228.368 80.8558 229.458 81.3044 230.633 81.3044C230.697 81.3044 230.739 81.3044 230.804 81.3044C229.693 81.219 228.667 80.7917 227.877 80.0013Z" fill="#FCA84C"/>
<path d="M238.045 72.3969C239.65 72.3969 240.951 71.0962 240.951 69.4917C240.951 67.8871 239.65 66.5864 238.045 66.5864C236.441 66.5864 235.14 67.8871 235.14 69.4917C235.14 71.0962 236.441 72.3969 238.045 72.3969Z" fill="#FF1F1F"/>
<path d="M230.633 79.809C232.237 79.809 233.538 78.5083 233.538 76.9038C233.538 75.2993 232.237 73.9985 230.633 73.9985C229.028 73.9985 227.728 75.2993 227.728 76.9038C227.728 78.5083 229.028 79.809 230.633 79.809Z" fill="#FF1F1F"/>
<path d="M238.045 72.3969C239.65 72.3969 240.951 71.0962 240.951 69.4917C240.951 67.8871 239.65 66.5864 238.045 66.5864C236.441 66.5864 235.14 67.8871 235.14 69.4917C235.14 71.0962 236.441 72.3969 238.045 72.3969Z" stroke="black" stroke-width="0.854484" stroke-miterlimit="10" stroke-linecap="round" stroke-linejoin="round"/>
<path d="M230.633 79.809C232.237 79.809 233.538 78.5083 233.538 76.9038C233.538 75.2993 232.237 73.9985 230.633 73.9985C229.028 73.9985 227.728 75.2993 227.728 76.9038C227.728 78.5083 229.028 79.809 230.633 79.809Z" stroke="black" stroke-width="0.854484" stroke-miterlimit="10" stroke-linecap="round" stroke-linejoin="round"/>
<path d="M212.453 92.8189L212.005 92.3703C211.748 92.114 211.748 91.7081 212.005 91.4731L216.512 86.9657C216.769 86.7094 217.174 86.7094 217.409 86.9657L217.858 87.4143C218.114 87.6707 218.114 88.0765 217.858 88.3115L213.351 92.8189C213.094 93.0753 212.688 93.0753 212.453 92.8189Z" stroke="black" stroke-width="0.854484" stroke-miterlimit="10" stroke-linecap="round" stroke-linejoin="round"/>
<path d="M219.759 92.8189L219.31 92.3703C219.054 92.114 219.054 91.7081 219.31 91.4731L223.818 86.9657C224.074 86.7094 224.48 86.7094 224.715 86.9657L225.164 87.4143C225.42 87.6707 225.42 88.0765 225.164 88.3115L220.656 92.8189C220.421 93.0753 220.015 93.0753 219.759 92.8189Z" stroke="black" stroke-width="0.854484" stroke-miterlimit="10" stroke-linecap="round" stroke-linejoin="round"/>
<path d="M234.862 94.3579L238.344 97.8613" stroke="black" stroke-width="1.28173" stroke-miterlimit="10" stroke-linecap="round" stroke-linejoin="round"/>
<path d="M232.577 96.6216L236.08 100.125" stroke="black" stroke-width="1.28173" stroke-miterlimit="10" stroke-linecap="round" stroke-linejoin="round"/>
<path d="M237.319 91.8799L240.822 95.3833" stroke="black" stroke-width="1.28173" stroke-miterlimit="10" stroke-linecap="round" stroke-linejoin="round"/>
<path d="M239.583 89.6152L243.087 93.1186" stroke="black" stroke-width="1.28173" stroke-miterlimit="10" stroke-linecap="round" stroke-linejoin="round"/>
<path d="M241.848 87.3506L245.351 90.854" stroke="black" stroke-width="1.28173" stroke-miterlimit="10" stroke-linecap="round" stroke-linejoin="round"/>
<path d="M243.941 1.23975H193.099V7.0716H243.941V1.23975Z" stroke="black" stroke-width="0.854484" stroke-miterlimit="10" stroke-linecap="round" stroke-linejoin="round"/>
<path d="M199.508 16.4067H220.379" stroke="black" stroke-width="0.854484" stroke-miterlimit="10" stroke-linecap="round" stroke-linejoin="round"/>
<path d="M231.551 16.4067H238.238" stroke="black" stroke-width="0.854484" stroke-miterlimit="10" stroke-linecap="round" stroke-linejoin="round"/>
<path d="M215.273 54.6665V56.2046" stroke="black" stroke-width="0.854484" stroke-miterlimit="10" stroke-linecap="round" stroke-linejoin="round"/>
<path d="M217.388 54.6665V56.2046" stroke="black" stroke-width="0.854484" stroke-miterlimit="10" stroke-linecap="round" stroke-linejoin="round"/>
<path d="M219.481 54.6665V56.2046" stroke="black" stroke-width="0.854484" stroke-miterlimit="10" stroke-linecap="round" stroke-linejoin="round"/>
<path d="M221.596 54.6665V56.2046" stroke="black" stroke-width="0.854484" stroke-miterlimit="10" stroke-linecap="round" stroke-linejoin="round"/>
<path opacity="0.24" d="M339.03 110.678H287.333C286.159 110.678 285.197 109.717 285.197 108.542V7.94774C285.197 6.77282 286.159 5.81152 287.333 5.81152H347.147C348.322 5.81152 349.284 6.77282 349.284 7.94774V100.424C349.284 106.085 344.691 110.678 339.03 110.678Z" fill="black" stroke="black" stroke-width="1.28173" stroke-miterlimit="10" stroke-linecap="round" stroke-linejoin="round"/>
<path d="M332.92 106.128H281.224C280.049 106.128 279.087 105.166 279.087 103.992V3.37596C279.087 2.20104 280.049 1.23975 281.224 1.23975H341.037C342.212 1.23975 343.174 2.20104 343.174 3.37596V95.8526C343.174 101.535 338.581 106.128 332.92 106.128Z" fill="#FCA417"/>
<path opacity="0.33" d="M281.608 103.201V4.16648C281.608 2.56432 282.911 1.26123 284.513 1.26123H281.993C280.39 1.26123 279.087 2.56432 279.087 4.16648V103.201C279.087 104.803 280.39 106.106 281.993 106.106H284.513C282.911 106.128 281.608 104.803 281.608 103.201Z" fill="white"/>
<path d="M298.313 84.2742C304.424 84.2742 309.379 79.32 309.379 73.2087C309.379 67.0973 304.424 62.1431 298.313 62.1431C292.202 62.1431 287.248 67.0973 287.248 73.2087C287.248 79.32 292.202 84.2742 298.313 84.2742Z" fill="#FCA84C"/>
<path opacity="0.66" d="M290.217 66.7145C293.956 62.0362 300.727 61.2031 305.491 64.7706C305.406 64.7065 305.32 64.6211 305.235 64.557C300.471 60.7332 293.486 61.5022 289.683 66.2873C285.881 71.0724 286.628 78.0365 291.414 81.8389C291.499 81.903 291.606 81.9884 291.691 82.0525C287.141 78.186 286.458 71.3928 290.217 66.7145Z" fill="#FCA84C"/>
<path d="M340.269 1.23975H337.598C339.2 1.23975 340.568 2.54284 340.568 4.145V92.1355C340.568 99.8473 334.266 106.128 326.533 106.128H329.203C336.915 106.128 343.195 99.8686 343.195 92.1355V4.16636C343.174 2.5642 341.871 1.23975 340.269 1.23975Z" fill="#FCA84C"/>
<path d="M320.679 106.128H329.181C336.893 106.128 343.173 99.8685 343.173 92.1354V83.6333L320.679 106.128Z" fill="#FCA84C"/>
<path d="M329.181 104.077H283.787C282.697 104.077 281.8 104.974 281.8 106.064V106.107H329.181C341.593 106.107 343.174 99.8474 343.174 92.1144V90.085C343.174 97.818 336.914 104.077 329.181 104.077Z" fill="#FCA84C"/>
<path d="M332.92 106.128H281.224C280.049 106.128 279.087 105.166 279.087 103.992V3.37596C279.087 2.20104 280.049 1.23975 281.224 1.23975H341.037C342.212 1.23975 343.174 2.20104 343.174 3.37596V95.8526C343.174 101.535 338.581 106.128 332.92 106.128Z" stroke="black" stroke-width="1.28173" stroke-miterlimit="10" stroke-linecap="round" stroke-linejoin="round"/>
<path d="M331.018 49.9455H288.679C288.209 49.9455 287.824 49.561 287.824 49.091V14.0571C287.824 13.5872 288.209 13.2026 288.679 13.2026H333.582C334.052 13.2026 334.436 13.5872 334.436 14.0571V46.5275C334.436 48.4074 332.898 49.9455 331.018 49.9455Z" fill="#514447"/>
<path d="M331.018 49.9455H288.679C288.209 49.9455 287.824 49.561 287.824 49.091V14.0571C287.824 13.5872 288.209 13.2026 288.679 13.2026H333.582C334.052 13.2026 334.436 13.5872 334.436 14.0571V46.5275C334.436 48.4074 332.898 49.9455 331.018 49.9455Z" stroke="black" stroke-width="0.854484" stroke-miterlimit="10" stroke-linecap="round" stroke-linejoin="round"/>
<path d="M325.486 45.8651H296.775C296.647 45.8651 296.562 45.7797 296.562 45.6515V19.2693C296.562 19.1411 296.647 19.0557 296.775 19.0557H325.486C325.614 19.0557 325.699 19.1411 325.699 19.2693V45.6515C325.699 45.7797 325.593 45.8651 325.486 45.8651Z" fill="#23A094"/>
<path d="M325.486 45.8651H296.775C296.647 45.8651 296.562 45.7797 296.562 45.6515V19.2693C296.562 19.1411 296.647 19.0557 296.775 19.0557H325.486C325.614 19.0557 325.699 19.1411 325.699 19.2693V45.6515C325.699 45.7797 325.593 45.8651 325.486 45.8651Z" stroke="black" stroke-width="0.854484" stroke-miterlimit="10" stroke-linecap="round" stroke-linejoin="round"/>
<path d="M340.268 1.23975H281.993C280.39 1.23975 279.087 2.54284 279.087 4.14499V7.05024H343.174V4.14499C343.174 2.5642 341.871 1.23975 340.268 1.23975Z" stroke="black" stroke-width="0.854484" stroke-miterlimit="10" stroke-linecap="round" stroke-linejoin="round"/>
<path d="M317.24 55.4355H334.437" stroke="black" stroke-width="0.854484" stroke-miterlimit="10" stroke-linecap="round" stroke-linejoin="round"/>
<path d="M287.824 55.4355H305.021" stroke="black" stroke-width="0.854484" stroke-miterlimit="10" stroke-linecap="round" stroke-linejoin="round"/>
<path d="M305.747 75.5797H291.392C290.858 75.5797 290.409 75.1524 290.409 74.597V71.7986C290.409 71.2645 290.836 70.8159 291.392 70.8159H305.747C306.281 70.8159 306.73 71.2432 306.73 71.7986V74.597C306.708 75.1524 306.281 75.5797 305.747 75.5797Z" fill="#664A4A"/>
<path d="M296.177 80.3863V66.031C296.177 65.4969 296.604 65.0483 297.159 65.0483H299.958C300.492 65.0483 300.941 65.4756 300.941 66.031V80.3863C300.941 80.9204 300.513 81.369 299.958 81.369H297.159C296.604 81.3476 296.177 80.9204 296.177 80.3863Z" fill="#664A4A"/>
<path d="M305.491 70.8803H301.411C301.154 70.8803 300.962 70.6667 300.962 70.4317V66.3943C300.962 65.668 300.364 65.0698 299.638 65.0698H297.544C296.861 65.0698 296.305 65.6252 296.305 66.3088V70.4531C296.305 70.7094 296.091 70.9017 295.857 70.9017H291.776C291.071 70.9017 290.495 71.4785 290.495 72.1834V74.2769C290.495 74.9819 291.071 75.5586 291.776 75.5586H295.857C296.113 75.5586 296.305 75.7722 296.305 76.0072V80.0447C296.305 80.771 296.903 81.3691 297.63 81.3691H299.638C300.364 81.3691 300.962 80.771 300.962 80.0447V76.0072C300.962 75.7509 301.176 75.5586 301.411 75.5586H305.405C306.174 75.5586 306.773 74.9391 306.773 74.1914V72.1834C306.751 71.4357 306.196 70.8803 305.491 70.8803Z" stroke="black" stroke-width="0.854484" stroke-miterlimit="10" stroke-linecap="round" stroke-linejoin="round"/>
<path d="M323.328 81.2829C322.154 81.2829 321.064 80.8343 320.231 80.0012C319.398 79.1681 318.949 78.0786 318.949 76.9037C318.949 75.7288 319.398 74.6393 320.231 73.8062L327.644 66.3935C328.477 65.5604 329.566 65.1118 330.741 65.1118C331.916 65.1118 333.005 65.5604 333.839 66.3935C335.548 68.1025 335.548 70.8796 333.839 72.5672L326.426 79.9798C325.593 80.813 324.503 81.2829 323.328 81.2829Z" fill="#FCA84C"/>
<path opacity="0.66" d="M320.573 80.0013C319.74 79.1682 319.291 78.0788 319.291 76.9038C319.291 75.7289 319.74 74.6395 320.573 73.8063L327.985 66.3937C328.776 65.6033 329.801 65.1547 330.912 65.1333C330.848 65.1333 330.805 65.1333 330.741 65.1333C329.566 65.1333 328.477 65.5819 327.644 66.415L320.231 73.8277C319.398 74.6608 318.949 75.7503 318.949 76.9252C318.949 78.1001 319.398 79.1896 320.231 80.0227C321.064 80.8558 322.154 81.3044 323.328 81.3044C323.393 81.3044 323.435 81.3044 323.499 81.3044C322.389 81.219 321.363 80.7917 320.573 80.0013Z" fill="#FCA84C"/>
<path d="M330.741 72.3969C332.346 72.3969 333.646 71.0962 333.646 69.4917C333.646 67.8871 332.346 66.5864 330.741 66.5864C329.137 66.5864 327.836 67.8871 327.836 69.4917C327.836 71.0962 329.137 72.3969 330.741 72.3969Z" fill="#FF1F1F"/>
<path d="M323.329 79.809C324.933 79.809 326.234 78.5083 326.234 76.9038C326.234 75.2993 324.933 73.9985 323.329 73.9985C321.724 73.9985 320.423 75.2993 320.423 76.9038C320.423 78.5083 321.724 79.809 323.329 79.809Z" fill="#FF1F1F"/>
<path d="M330.741 72.3969C332.346 72.3969 333.646 71.0962 333.646 69.4917C333.646 67.8871 332.346 66.5864 330.741 66.5864C329.137 66.5864 327.836 67.8871 327.836 69.4917C327.836 71.0962 329.137 72.3969 330.741 72.3969Z" stroke="black" stroke-width="0.854484" stroke-miterlimit="10" stroke-linecap="round" stroke-linejoin="round"/>
<path d="M323.329 79.809C324.933 79.809 326.234 78.5083 326.234 76.9038C326.234 75.2993 324.933 73.9985 323.329 73.9985C321.724 73.9985 320.423 75.2993 320.423 76.9038C320.423 78.5083 321.724 79.809 323.329 79.809Z" stroke="black" stroke-width="0.854484" stroke-miterlimit="10" stroke-linecap="round" stroke-linejoin="round"/>
<path d="M305.149 92.8189L304.701 92.3703C304.444 92.114 304.444 91.7081 304.701 91.4731L309.208 86.9657C309.464 86.7094 309.87 86.7094 310.105 86.9657L310.554 87.4143C310.81 87.6707 310.81 88.0765 310.554 88.3115L306.046 92.8189C305.79 93.0753 305.384 93.0753 305.149 92.8189Z" stroke="black" stroke-width="0.854484" stroke-miterlimit="10" stroke-linecap="round" stroke-linejoin="round"/>
<path d="M312.455 92.8189L312.006 92.3703C311.75 92.114 311.75 91.7081 312.006 91.4731L316.514 86.9657C316.77 86.7094 317.176 86.7094 317.411 86.9657L317.859 87.4143C318.116 87.6707 318.116 88.0765 317.859 88.3115L313.352 92.8189C313.117 93.0753 312.711 93.0753 312.455 92.8189Z" stroke="black" stroke-width="0.854484" stroke-miterlimit="10" stroke-linecap="round" stroke-linejoin="round"/>
<path d="M327.558 94.3579L331.04 97.8613" stroke="black" stroke-width="1.28173" stroke-miterlimit="10" stroke-linecap="round" stroke-linejoin="round"/>
<path d="M325.272 96.6216L328.776 100.125" stroke="black" stroke-width="1.28173" stroke-miterlimit="10" stroke-linecap="round" stroke-linejoin="round"/>
<path d="M330.015 91.8799L333.518 95.3833" stroke="black" stroke-width="1.28173" stroke-miterlimit="10" stroke-linecap="round" stroke-linejoin="round"/>
<path d="M332.279 89.6152L335.783 93.1186" stroke="black" stroke-width="1.28173" stroke-miterlimit="10" stroke-linecap="round" stroke-linejoin="round"/>
<path d="M334.543 87.3506L338.047 90.854" stroke="black" stroke-width="1.28173" stroke-miterlimit="10" stroke-linecap="round" stroke-linejoin="round"/>
<path d="M336.637 1.23975H285.795V7.0716H336.637V1.23975Z" stroke="black" stroke-width="0.854484" stroke-miterlimit="10" stroke-linecap="round" stroke-linejoin="round"/>
<path d="M292.204 16.4067H313.074" stroke="black" stroke-width="0.854484" stroke-miterlimit="10" stroke-linecap="round" stroke-linejoin="round"/>
<path d="M324.247 16.4067H330.933" stroke="black" stroke-width="0.854484" stroke-miterlimit="10" stroke-linecap="round" stroke-linejoin="round"/>
<path d="M307.969 54.6665V56.2046" stroke="black" stroke-width="0.854484" stroke-miterlimit="10" stroke-linecap="round" stroke-linejoin="round"/>
<path d="M310.083 54.6665V56.2046" stroke="black" stroke-width="0.854484" stroke-miterlimit="10" stroke-linecap="round" stroke-linejoin="round"/>
<path d="M312.177 54.6665V56.2046" stroke="black" stroke-width="0.854484" stroke-miterlimit="10" stroke-linecap="round" stroke-linejoin="round"/>
<path d="M314.292 54.6665V56.2046" stroke="black" stroke-width="0.854484" stroke-miterlimit="10" stroke-linecap="round" stroke-linejoin="round"/>
</svg>
