<svg width="73" height="112" viewBox="0 0 73 112" fill="none" xmlns="http://www.w3.org/2000/svg">
<path opacity="0.24" d="M61.3335 110.678H9.63719C8.46227 110.678 7.50098 109.717 7.50098 108.542V7.94774C7.50098 6.77282 8.46227 5.81152 9.63719 5.81152H69.4511C70.626 5.81152 71.5873 6.77282 71.5873 7.94774V100.424C71.5873 106.085 66.9944 110.678 61.3335 110.678Z" fill="black" stroke="black" stroke-width="1.28173" stroke-miterlimit="10" stroke-linecap="round" stroke-linejoin="round"/>
<path d="M55.2241 106.128H3.52781C2.3529 106.128 1.3916 105.166 1.3916 103.992V3.37596C1.3916 2.20104 2.3529 1.23975 3.52781 1.23975H63.3417C64.5166 1.23975 65.4779 2.20104 65.4779 3.37596V95.8526C65.4779 101.535 60.885 106.128 55.2241 106.128Z" fill="#FCA417"/>
<path opacity="0.33" d="M3.91233 103.201V4.16648C3.91233 2.56432 5.21542 1.26123 6.81757 1.26123H4.29685C2.69469 1.26123 1.3916 2.56432 1.3916 4.16648V103.201C1.3916 104.803 2.69469 106.106 4.29685 106.106H6.81757C5.21542 106.128 3.91233 104.803 3.91233 103.201Z" fill="white"/>
<path d="M20.6173 84.2742C26.7287 84.2742 31.6829 79.32 31.6829 73.2087C31.6829 67.0973 26.7287 62.1431 20.6173 62.1431C14.506 62.1431 9.55176 67.0973 9.55176 73.2087C9.55176 79.32 14.506 84.2742 20.6173 84.2742Z" fill="#FCA84C"/>
<path opacity="0.66" d="M12.5215 66.7145C16.2599 62.0362 23.0316 61.2031 27.7954 64.7706C27.7099 64.7065 27.6245 64.6211 27.539 64.557C22.7753 60.7332 15.7899 61.5022 11.9874 66.2873C8.18499 71.0724 8.93267 78.0365 13.7178 81.8389C13.8032 81.903 13.91 81.9884 13.9955 82.0525C9.44535 78.186 8.76177 71.3928 12.5215 66.7145Z" fill="#FCA84C"/>
<path d="M62.5728 1.23975H59.9025C61.5046 1.23975 62.8718 2.54284 62.8718 4.145V92.1355C62.8718 99.8473 56.57 106.128 48.8369 106.128H51.5072C59.2189 106.128 65.4993 99.8686 65.4993 92.1355V4.16636C65.478 2.5642 64.1749 1.23975 62.5728 1.23975Z" fill="#FCA84C"/>
<path d="M42.9834 106.128H51.4855C59.1972 106.128 65.4777 99.8685 65.4777 92.1354V83.6333L42.9834 106.128Z" fill="#FCA84C"/>
<path d="M51.4856 104.077H6.09116C5.0017 104.077 4.10449 104.974 4.10449 106.064V106.107H51.4856C63.897 106.107 65.4778 99.8474 65.4778 92.1144V90.085C65.4778 97.818 59.2187 104.077 51.4856 104.077Z" fill="#FCA84C"/>
<path d="M55.2241 106.128H3.52781C2.3529 106.128 1.3916 105.166 1.3916 103.992V3.37596C1.3916 2.20104 2.3529 1.23975 3.52781 1.23975H63.3417C64.5166 1.23975 65.4779 2.20104 65.4779 3.37596V95.8526C65.4779 101.535 60.885 106.128 55.2241 106.128Z" stroke="black" stroke-width="1.28173" stroke-miterlimit="10" stroke-linecap="round" stroke-linejoin="round"/>
<path d="M53.3226 49.9455H10.9829C10.5129 49.9455 10.1284 49.561 10.1284 49.091V14.0571C10.1284 13.5872 10.5129 13.2026 10.9829 13.2026H55.886C56.356 13.2026 56.7405 13.5872 56.7405 14.0571V46.5275C56.7405 48.4074 55.2024 49.9455 53.3226 49.9455Z" fill="#514447"/>
<path d="M53.3226 49.9455H10.9829C10.5129 49.9455 10.1284 49.561 10.1284 49.091V14.0571C10.1284 13.5872 10.5129 13.2026 10.9829 13.2026H55.886C56.356 13.2026 56.7405 13.5872 56.7405 14.0571V46.5275C56.7405 48.4074 55.2024 49.9455 53.3226 49.9455Z" stroke="black" stroke-width="0.854484" stroke-miterlimit="10" stroke-linecap="round" stroke-linejoin="round"/>
<path d="M47.79 45.8651H19.0793C18.9512 45.8651 18.8657 45.7797 18.8657 45.6515V19.2693C18.8657 19.1411 18.9512 19.0557 19.0793 19.0557H47.79C47.9182 19.0557 48.0036 19.1411 48.0036 19.2693V45.6515C48.0036 45.7797 47.8968 45.8651 47.79 45.8651Z" fill="#23A094"/>
<path d="M47.79 45.8651H19.0793C18.9512 45.8651 18.8657 45.7797 18.8657 45.6515V19.2693C18.8657 19.1411 18.9512 19.0557 19.0793 19.0557H47.79C47.9182 19.0557 48.0036 19.1411 48.0036 19.2693V45.6515C48.0036 45.7797 47.8968 45.8651 47.79 45.8651Z" stroke="black" stroke-width="0.854484" stroke-miterlimit="10" stroke-linecap="round" stroke-linejoin="round"/>
<path d="M62.5726 1.23975H4.29685C2.69469 1.23975 1.3916 2.54284 1.3916 4.14499V7.05024H65.4779V4.14499C65.4779 2.5642 64.1748 1.23975 62.5726 1.23975Z" stroke="black" stroke-width="0.854484" stroke-miterlimit="10" stroke-linecap="round" stroke-linejoin="round"/>
<path d="M39.5444 55.4355H56.7409" stroke="black" stroke-width="0.854484" stroke-miterlimit="10" stroke-linecap="round" stroke-linejoin="round"/>
<path d="M10.1284 55.4355H27.3249" stroke="black" stroke-width="0.854484" stroke-miterlimit="10" stroke-linecap="round" stroke-linejoin="round"/>
<path d="M28.0514 75.5797H13.696C13.162 75.5797 12.7134 75.1524 12.7134 74.597V71.7986C12.7134 71.2645 13.1406 70.8159 13.696 70.8159H28.0514C28.5854 70.8159 29.034 71.2432 29.034 71.7986V74.597C29.0127 75.1524 28.5854 75.5797 28.0514 75.5797Z" fill="#664A4A"/>
<path d="M18.481 80.3863V66.031C18.481 65.4969 18.9082 65.0483 19.4636 65.0483H22.2621C22.7961 65.0483 23.2447 65.4756 23.2447 66.031V80.3863C23.2447 80.9204 22.8175 81.369 22.2621 81.369H19.4636C18.9082 81.3476 18.481 80.9204 18.481 80.3863Z" fill="#664A4A"/>
<path d="M27.795 70.8803H23.7149C23.4585 70.8803 23.2663 70.6667 23.2663 70.4317V66.3943C23.2663 65.668 22.6681 65.0698 21.9418 65.0698H19.8483C19.1647 65.0698 18.6093 65.6252 18.6093 66.3088V70.4531C18.6093 70.7094 18.3957 70.9017 18.1607 70.9017H14.0806C13.3756 70.9017 12.7988 71.4785 12.7988 72.1834V74.2769C12.7988 74.9819 13.3756 75.5586 14.0806 75.5586H18.1607C18.4171 75.5586 18.6093 75.7722 18.6093 76.0072V80.0447C18.6093 80.771 19.2075 81.3691 19.9338 81.3691H21.9418C22.6681 81.3691 23.2663 80.771 23.2663 80.0447V76.0072C23.2663 75.7509 23.4799 75.5586 23.7149 75.5586H27.7096C28.4786 75.5586 29.0767 74.9391 29.0767 74.1914V72.1834C29.0554 71.4357 28.5 70.8803 27.795 70.8803Z" stroke="black" stroke-width="0.854484" stroke-miterlimit="10" stroke-linecap="round" stroke-linejoin="round"/>
<path d="M45.6326 81.2829C44.4577 81.2829 43.3683 80.8343 42.5351 80.0012C41.702 79.1681 41.2534 78.0786 41.2534 76.9037C41.2534 75.7288 41.702 74.6393 42.5351 73.8062L49.9478 66.3935C50.7809 65.5604 51.8704 65.1118 53.0453 65.1118C54.2202 65.1118 55.3097 65.5604 56.1428 66.3935C57.8518 68.1025 57.8518 70.8796 56.1428 72.5672L48.7302 79.9798C47.897 80.813 46.8076 81.2829 45.6326 81.2829Z" fill="#FCA84C"/>
<path opacity="0.66" d="M42.8769 80.0013C42.0438 79.1682 41.5952 78.0788 41.5952 76.9038C41.5952 75.7289 42.0438 74.6395 42.8769 73.8063L50.2896 66.3937C51.08 65.6033 52.1054 65.1547 53.2162 65.1333C53.1521 65.1333 53.1094 65.1333 53.0453 65.1333C51.8704 65.1333 50.7809 65.5819 49.9478 66.415L42.5351 73.8277C41.702 74.6608 41.2534 75.7503 41.2534 76.9252C41.2534 78.1001 41.702 79.1896 42.5351 80.0227C43.3683 80.8558 44.4577 81.3044 45.6326 81.3044C45.6967 81.3044 45.7395 81.3044 45.8036 81.3044C44.6927 81.219 43.6673 80.7917 42.8769 80.0013Z" fill="#FCA84C"/>
<path d="M53.0454 72.3969C54.6499 72.3969 55.9506 71.0962 55.9506 69.4917C55.9506 67.8871 54.6499 66.5864 53.0454 66.5864C51.4409 66.5864 50.1401 67.8871 50.1401 69.4917C50.1401 71.0962 51.4409 72.3969 53.0454 72.3969Z" fill="#FF1F1F"/>
<path d="M45.6328 79.809C47.2373 79.809 48.538 78.5083 48.538 76.9038C48.538 75.2993 47.2373 73.9985 45.6328 73.9985C44.0283 73.9985 42.7275 75.2993 42.7275 76.9038C42.7275 78.5083 44.0283 79.809 45.6328 79.809Z" fill="#FF1F1F"/>
<path d="M53.0454 72.3969C54.6499 72.3969 55.9506 71.0962 55.9506 69.4917C55.9506 67.8871 54.6499 66.5864 53.0454 66.5864C51.4409 66.5864 50.1401 67.8871 50.1401 69.4917C50.1401 71.0962 51.4409 72.3969 53.0454 72.3969Z" stroke="black" stroke-width="0.854484" stroke-miterlimit="10" stroke-linecap="round" stroke-linejoin="round"/>
<path d="M45.6328 79.809C47.2373 79.809 48.538 78.5083 48.538 76.9038C48.538 75.2993 47.2373 73.9985 45.6328 73.9985C44.0283 73.9985 42.7275 75.2993 42.7275 76.9038C42.7275 78.5083 44.0283 79.809 45.6328 79.809Z" stroke="black" stroke-width="0.854484" stroke-miterlimit="10" stroke-linecap="round" stroke-linejoin="round"/>
<path d="M27.4534 92.8189L27.0048 92.3703C26.7484 92.114 26.7484 91.7081 27.0048 91.4731L31.5122 86.9657C31.7685 86.7094 32.1744 86.7094 32.4094 86.9657L32.858 87.4143C33.1143 87.6707 33.1143 88.0765 32.858 88.3115L28.3506 92.8189C28.0942 93.0753 27.6883 93.0753 27.4534 92.8189Z" stroke="black" stroke-width="0.854484" stroke-miterlimit="10" stroke-linecap="round" stroke-linejoin="round"/>
<path d="M34.759 92.8189L34.3104 92.3703C34.0541 92.114 34.0541 91.7081 34.3104 91.4731L38.8178 86.9657C39.0742 86.7094 39.4801 86.7094 39.715 86.9657L40.1636 87.4143C40.42 87.6707 40.42 88.0765 40.1636 88.3115L35.6562 92.8189C35.4212 93.0753 35.0154 93.0753 34.759 92.8189Z" stroke="black" stroke-width="0.854484" stroke-miterlimit="10" stroke-linecap="round" stroke-linejoin="round"/>
<path d="M49.8623 94.3579L53.3443 97.8613" stroke="black" stroke-width="1.28173" stroke-miterlimit="10" stroke-linecap="round" stroke-linejoin="round"/>
<path d="M47.5767 96.6216L51.08 100.125" stroke="black" stroke-width="1.28173" stroke-miterlimit="10" stroke-linecap="round" stroke-linejoin="round"/>
<path d="M52.3188 91.8799L55.8222 95.3833" stroke="black" stroke-width="1.28173" stroke-miterlimit="10" stroke-linecap="round" stroke-linejoin="round"/>
<path d="M54.5835 89.6152L58.0869 93.1186" stroke="black" stroke-width="1.28173" stroke-miterlimit="10" stroke-linecap="round" stroke-linejoin="round"/>
<path d="M56.8477 87.3506L60.351 90.854" stroke="black" stroke-width="1.28173" stroke-miterlimit="10" stroke-linecap="round" stroke-linejoin="round"/>
<path d="M58.9409 1.23975H8.09912V7.0716H58.9409V1.23975Z" stroke="black" stroke-width="0.854484" stroke-miterlimit="10" stroke-linecap="round" stroke-linejoin="round"/>
<path d="M14.5078 16.4067H35.3786" stroke="black" stroke-width="0.854484" stroke-miterlimit="10" stroke-linecap="round" stroke-linejoin="round"/>
<path d="M46.5513 16.4067H53.2376" stroke="black" stroke-width="0.854484" stroke-miterlimit="10" stroke-linecap="round" stroke-linejoin="round"/>
<path d="M30.2729 54.6665V56.2046" stroke="black" stroke-width="0.854484" stroke-miterlimit="10" stroke-linecap="round" stroke-linejoin="round"/>
<path d="M32.3877 54.6665V56.2046" stroke="black" stroke-width="0.854484" stroke-miterlimit="10" stroke-linecap="round" stroke-linejoin="round"/>
<path d="M34.4814 54.6665V56.2046" stroke="black" stroke-width="0.854484" stroke-miterlimit="10" stroke-linecap="round" stroke-linejoin="round"/>
<path d="M36.5962 54.6665V56.2046" stroke="black" stroke-width="0.854484" stroke-miterlimit="10" stroke-linecap="round" stroke-linejoin="round"/>
</svg>
